<svg width="83" height="82" viewBox="0 0 83 82" fill="none" xmlns="http://www.w3.org/2000/svg">
<g clip-path="url(#clip0_17_386)">
<path opacity="0.2" d="M37.4162 0H37.4161C16.7518 0 0 16.7518 0 37.4161V37.4162C0 58.0805 16.7518 74.8323 37.4161 74.8323H37.4162C58.0805 74.8323 74.8323 58.0805 74.8323 37.4162V37.4161C74.8323 16.7518 58.0805 0 37.4162 0Z" fill="#4263EB"/>
<path d="M82.6265 56.1238C82.6265 42.3475 71.4586 31.1797 57.6824 31.1797C43.9061 31.1797 32.7383 42.3475 32.7383 56.1238C32.7383 69.9 43.9061 81.0679 57.6824 81.0679C71.4586 81.0679 82.6265 69.9 82.6265 56.1238Z" fill="#4263EB"/>
</g>
<defs>
<clipPath id="clip0_17_386">
<rect width="83" height="82" fill="white"/>
</clipPath>
</defs>
</svg>
